<?xml version="1.0" encoding="UTF-8" standalone="no"?>
<!DOCTYPE svg PUBLIC "-//W3C//DTD SVG 1.1//EN" "http://www.w3.org/Graphics/SVG/1.1/DTD/svg11.dtd">
<svg width="100%" height="100%" viewBox="0 0 815 797" version="1.1" xmlns="http://www.w3.org/2000/svg" xmlns:xlink="http://www.w3.org/1999/xlink" xml:space="preserve" xmlns:serif="http://www.serif.com/" style="fill-rule:evenodd;clip-rule:evenodd;stroke-linejoin:round;stroke-miterlimit:2;">
    <g transform="matrix(1.00574,0,0,0.983524,-0.124913,3.61387)">
        <g id="Layer1">
            <path d="M111.382,398.276C101.316,389.417 90.567,380.403 80.353,370.679C70.573,361.369 61.003,351.742 52.254,341.476C44.271,332.108 37.735,321.524 30.153,311.793C22.498,301.968 17.671,290.727 12.833,279.463C6.532,264.794 5.267,249.317 6.021,233.591C6.623,221.042 10.812,209.635 18.949,200.159C23.787,194.527 29.847,189.92 35.501,185.018C46.548,175.441 60.251,170.891 73.356,165.129C105.754,150.884 149.89,124.519 173.593,62.265C177.78,51.269 183.668,40.985 190.965,31.403C202.472,16.295 222.9,5.519 235.463,2.934C245.163,0.938 261.433,2.845 262.471,2.955C275.023,4.281 286.854,8.228 298.066,13.704C306.933,18.035 315.791,22.736 323.73,28.537C338.355,39.225 353.104,49.981 366.311,62.305C380.393,75.444 398.95,96.946 405.986,104.493C406.895,105.468 408.525,107.583 408.525,107.583C417.384,97.517 426.398,86.768 436.122,76.554C445.432,66.774 455.059,57.204 465.325,48.455C474.693,40.472 485.277,33.936 495.008,26.354C504.833,18.699 516.074,13.872 527.338,9.034C542.007,2.733 557.484,1.468 573.21,2.222C585.759,2.824 597.166,7.013 606.642,15.15C612.274,19.988 616.881,26.048 621.783,31.702C631.36,42.749 635.91,56.452 641.672,69.557C655.917,101.955 682.282,146.092 744.536,169.794C755.532,173.981 765.816,179.869 775.398,187.166C790.506,198.673 801.282,219.101 803.867,231.664C805.863,241.364 803.956,257.634 803.846,258.672C802.52,271.224 798.573,283.055 793.097,294.267C788.766,303.134 784.065,311.992 778.264,319.931C767.576,334.556 756.82,349.305 744.496,362.512C731.357,376.594 709.855,395.151 702.308,402.187C701.333,403.096 699.218,404.726 699.218,404.726C709.284,413.585 720.033,422.599 730.247,432.323C740.027,441.633 749.597,451.26 758.346,461.526C766.329,470.894 772.865,481.478 780.447,491.209C788.102,501.034 792.929,512.275 797.767,523.539C804.068,538.208 805.333,553.685 804.579,569.411C803.977,581.96 799.788,593.367 791.651,602.843C786.813,608.475 780.753,613.082 775.099,617.984C764.052,627.561 750.349,632.111 737.244,637.873C704.846,652.118 660.709,678.483 637.007,740.737C632.82,751.733 626.932,762.017 619.635,771.599C608.128,786.707 587.7,797.483 575.137,800.068C565.437,802.064 549.167,800.157 548.129,800.047C535.577,798.721 523.746,794.774 512.534,789.298C503.667,784.967 494.809,780.266 486.87,774.465C472.245,763.777 457.496,753.021 444.289,740.697C430.207,727.558 411.65,706.056 404.614,698.509C403.705,697.534 402.075,695.419 402.075,695.419C393.216,705.485 384.202,716.234 374.478,726.448C365.168,736.228 355.541,745.798 345.275,754.547C335.907,762.53 325.323,769.066 315.592,776.648C305.767,784.303 294.526,789.13 283.262,793.968C268.593,800.269 253.116,801.534 237.39,800.78C224.841,800.178 213.434,795.989 203.958,787.852C198.326,783.014 193.719,776.954 188.817,771.3C179.24,760.253 174.69,746.55 168.928,733.445C154.683,701.047 128.318,656.911 66.064,633.208C55.068,629.021 44.784,623.133 35.202,615.836C20.094,604.329 9.318,583.901 6.733,571.338C4.737,561.638 6.644,545.368 6.754,544.33C8.08,531.778 12.027,519.947 17.503,508.735C21.834,499.868 26.535,491.01 32.336,483.071C43.024,468.446 53.78,453.697 66.104,440.49C79.243,426.408 100.745,407.851 108.292,400.815C109.267,399.906 111.382,398.276 111.382,398.276Z" style="fill:rgb(140,192,136);"/>
        </g>
    </g>
    <g id="personnages" transform="matrix(0.997969,-0.0636939,0.0636939,0.997969,-34.775,17.7149)">
        <g id="perso-2" serif:id="perso 2">
            <g id="tete" transform="matrix(0.912637,-0.0669439,0.0669439,0.912637,27.8302,66.0587)">
                <circle cx="327.596" cy="226.292" r="109.751" style="fill:rgb(211,233,223);"/>
            </g>
            <g id="bras-1" serif:id="bras 1" transform="matrix(0.908379,-0.110613,0.110613,0.908379,16.8841,75.7139)">
                <path d="M177.56,381.255C177.56,381.255 192.819,349.829 223.635,330.984C229.938,327.129 166.493,298.942 212.626,170.842C221.73,145.563 182.182,95.304 144.307,232.958C144.307,232.958 123.434,321.882 177.56,381.255Z" style="fill:rgb(211,233,223);fill-rule:nonzero;"/>
            </g>
            <path id="casque" d="M248.801,288.517C246.836,289.478 244.585,289.915 242.251,289.663L219.153,287.169C212.568,286.458 207.799,280.534 208.51,273.95L217.356,192.025C218.067,185.441 223.99,180.672 230.575,181.383L249.142,183.388C252.642,178.514 291.267,127.088 357.545,134.571C421.115,141.749 447.42,203.372 450.455,211.036L464.437,212.546C471.021,213.257 475.79,219.18 475.079,225.764L466.233,307.689C465.522,314.274 459.599,319.042 453.014,318.331L429.916,315.837C423.331,315.126 418.562,309.203 419.273,302.618L428.119,220.694C428.561,216.599 431.019,213.206 434.398,211.397C430.539,201.938 410.539,159.95 356.632,151.28C303.413,142.721 270.063,181.594 263.169,190.543C264.131,192.509 264.568,194.761 264.316,197.096L255.47,279.02C255.326,280.359 254.966,281.623 254.428,282.781C263.487,301.442 279.639,304.981 284.38,306.966C289.277,309.017 287.302,315.122 287.302,315.122C265.037,310.029 253.499,295.957 248.801,288.517Z" style="fill:rgb(118,130,125);fill-rule:nonzero;"/>
            <g id="corps" transform="matrix(0.912637,-0.0669439,0.0669439,0.912637,27.8302,66.0587)">
                <path d="M260.635,332.601C260.635,332.601 295.856,363.982 363.215,351.013C363.215,351.013 418.391,371.364 374.622,440.48C330.853,509.596 311.404,657.769 337.222,688.436C337.222,688.436 186.715,681.192 176.498,497.507C176.498,497.507 173.504,336.552 260.635,332.601Z" style="fill:rgb(211,233,223);fill-rule:nonzero;"/>
            </g>
            <path id="lunettes" d="M337.361,251.717C332.31,273.514 313.562,290.468 290.088,292.189C261.216,294.307 236.056,272.586 233.938,243.714C231.82,214.842 253.541,189.682 282.413,187.564C311.286,185.446 336.446,207.167 338.564,236.039C338.76,238.722 338.751,241.372 338.55,243.975L349.715,245.547C354.691,223.645 373.485,206.584 397.038,204.856C425.91,202.738 451.07,224.46 453.188,253.332C455.306,282.204 433.585,307.364 404.713,309.482C375.84,311.6 350.68,289.879 348.563,261.006C348.371,258.4 348.374,255.825 348.559,253.294L337.361,251.717Z" style="fill:rgb(154,211,210);"/>
            <g id="bras-2" serif:id="bras 2" transform="matrix(0.912637,-0.0669439,0.0669439,0.912637,27.8302,66.0587)">
                <path d="M478.637,375.282C478.714,374.807 478.683,375.014 478.725,374.618C478.894,373.018 483.73,320.676 483.73,320.676C483.73,320.676 427.098,311.049 420.204,315.265C418.543,316.281 383.625,334.9 402.078,370.157C402.078,370.157 452.029,388.049 477.751,377.101C478.416,376.818 478.405,376.642 478.516,376C478.617,375.408 478.54,375.879 478.637,375.282Z" style="fill:rgb(195,215,205);fill-rule:nonzero;"/>
            </g>
        </g>
        <g id="perso-21" serif:id="perso 2">
            <g transform="matrix(0.912637,-0.0669439,0.0669439,0.912637,27.8302,66.0587)">
                <path d="M461.699,391.245C461.699,391.245 507.984,431.353 560.983,443.218C560.983,443.218 622.068,471.939 486.456,564.729C486.456,564.729 379.998,616.034 356.55,683.441C356.55,683.441 326.973,635.499 373.572,498.356C420.17,361.212 461.699,391.245 461.699,391.245Z" style="fill:rgb(118,130,125);fill-rule:nonzero;"/>
            </g>
            <g transform="matrix(0.912637,-0.0669439,0.0669439,0.912637,27.8302,66.0587)">
                <path d="M558.65,421.869C559.544,421.152 594.757,419.128 602.563,414.482C610.368,409.835 626.834,491.212 520.383,483.971C520.383,483.971 495.383,472.658 558.65,421.869Z" style="fill:rgb(211,233,223);fill-rule:nonzero;"/>
            </g>
            <g transform="matrix(-0.768682,0.0827998,-0.0827998,-0.768682,759.954,753.004)">
                <path d="M177.56,381.255C177.56,381.255 200.881,344.703 223.635,330.984C229.962,327.169 166.493,298.942 212.626,170.842C221.73,145.563 182.182,95.304 144.307,232.958C144.307,232.958 123.434,321.882 177.56,381.255Z" style="fill:rgb(118,130,125);fill-rule:nonzero;"/>
            </g>
            <g transform="matrix(0.912637,-0.0669439,0.0669439,0.912637,27.8302,66.0587)">
                <circle cx="563" cy="319.733" r="102.688" style="fill:rgb(118,130,125);"/>
            </g>
            <g id="casque1" serif:id="casque" transform="matrix(0.910881,0.212762,-0.212762,0.910881,305.376,20.8452)">
                <path d="M248.801,288.517C246.836,289.478 244.585,289.915 242.251,289.663L219.153,287.169C212.568,286.458 207.799,280.534 208.51,273.95L217.356,192.025C218.067,185.441 223.99,180.672 230.575,181.383L249.142,183.388C252.642,178.514 291.267,127.088 357.545,134.571C421.115,141.749 447.42,203.372 450.455,211.036L464.437,212.546C471.021,213.257 475.79,219.18 475.079,225.764L466.233,307.689C465.522,314.274 459.599,319.042 453.014,318.331L429.916,315.837C423.331,315.126 418.562,309.203 419.273,302.618L428.119,220.694C428.561,216.599 431.019,213.206 434.398,211.397C430.539,201.938 410.539,159.95 356.632,151.28C303.413,142.721 270.063,181.594 263.169,190.543C264.131,192.509 264.568,194.761 264.316,197.096L255.47,279.02C255.326,280.359 254.966,281.623 254.428,282.781C263.487,301.442 279.639,304.981 284.38,306.966C289.277,309.017 287.302,315.122 287.302,315.122C265.037,310.029 253.499,295.957 248.801,288.517Z" style="fill:rgb(211,233,223);fill-rule:nonzero;"/>
            </g>
            <g id="lunettes1" serif:id="lunettes" transform="matrix(0.899455,0.164902,-0.164902,0.899455,294.367,36.7142)">
                <path d="M337.361,251.717C332.31,273.514 313.562,290.468 290.088,292.189C261.216,294.307 236.056,272.586 233.938,243.714C231.82,214.842 253.541,189.682 282.413,187.564C311.286,185.446 336.446,207.167 338.564,236.039C338.76,238.722 338.751,241.372 338.55,243.975L349.715,245.547C354.691,223.645 373.485,206.584 397.038,204.856C425.91,202.738 451.07,224.46 453.188,253.332C455.306,282.204 433.585,307.364 404.713,309.482C375.84,311.6 350.68,289.879 348.563,261.006C348.371,258.4 348.374,255.825 348.559,253.294L337.361,251.717Z" style="fill:rgb(154,211,210);"/>
            </g>
        </g>
    </g>
</svg>
